HIERARCHY
ROOT Hips
{
    OFFSET 0.000000 0.000000 0.000000
    CHANNELS 6 Xposition Yposition Zposition Zrotation Xrotation Yrotation
    JOINT Spine
    {
        OFFSET -0.000000 0.068295 0.000000
        CHANNELS 3 Zrotation Xrotation Yrotation
        JOINT Spine1
        {
            OFFSET -0.000000 0.198479 0.000000
            CHANNELS 3 Zrotation Xrotation Yrotation
            JOINT Neck
            {
                OFFSET -0.000000 0.215136 0.000000
                CHANNELS 3 Zrotation Xrotation Yrotation
                JOINT Head
                {
                    OFFSET -0.000000 0.090366 0.016657
                    CHANNELS 3 Zrotation Xrotation Yrotation
                    End Site
                    {
                        OFFSET -0.000000 0.166573 0.000000
                    }
                }
            }
            JOINT LeftShoulder
            {
                OFFSET 0.033522 0.175145 -0.001055
                CHANNELS 3 Zrotation Xrotation Yrotation
                JOINT LeftArm
                {
                    OFFSET 0.121214 0.000000 0.000000
                    CHANNELS 3 Zrotation Xrotation Yrotation
                    JOINT LeftForeArm
                    {
                        OFFSET 0.261115 0.000000 0.000000
                        CHANNELS 3 Zrotation Xrotation Yrotation
                        JOINT LeftHand
                        {
                            OFFSET 0.230096 0.000000 0.000000
                            CHANNELS 3 Zrotation Xrotation Yrotation
                            End Site
                            {
                                OFFSET 0.000000 -0.124930 0.000000
                            }
                        }
                    }
                }
            }
            JOINT RightShoulder
            {
                OFFSET -0.033103 0.175145 -0.001055
                CHANNELS 3 Zrotation Xrotation Yrotation
                JOINT RightArm
                {
                    OFFSET -0.121214 0.000000 0.000000
                    CHANNELS 3 Zrotation Xrotation Yrotation
                    JOINT RightForeArm
                    {
                        OFFSET -0.261115 0.000000 0.000000
                        CHANNELS 3 Zrotation Xrotation Yrotation
                        JOINT RightHand
                        {
                            OFFSET -0.230096 0.000000 0.000000
                            CHANNELS 3 Zrotation Xrotation Yrotation
                            End Site
                            {
                                OFFSET -0.000000 -0.124930 0.000000
                            }
                        }
                    }
                }
            }
        }
    }
    JOINT LeftUpLeg
    {
        OFFSET 0.083287 0.000000 0.000000
        CHANNELS 3 Zrotation Xrotation Yrotation
        JOINT LeftLeg
        {
            OFFSET -0.000000 -0.281128 0.000000
            CHANNELS 3 Zrotation Xrotation Yrotation
            JOINT LeftFoot
            {
                OFFSET -0.000000 -0.491911 0.000000
                CHANNELS 3 Zrotation Xrotation Yrotation
                JOINT LeftToeBase
                {
                    OFFSET -0.000000 -0.054136 0.124930
                    CHANNELS 3 Zrotation Xrotation Yrotation
                    End Site
                    {
                        OFFSET -0.000000 0.000000 0.033315
                    }
                }
            }
        }
    }
    JOINT RightUpLeg
    {
        OFFSET -0.083287 0.000000 0.000000
        CHANNELS 3 Zrotation Xrotation Yrotation
        JOINT RightLeg
        {
            OFFSET -0.000000 -0.281128 0.000000
            CHANNELS 3 Zrotation Xrotation Yrotation
            JOINT RightFoot
            {
                OFFSET -0.000000 -0.491911 0.000000
                CHANNELS 3 Zrotation Xrotation Yrotation
                JOINT RightToeBase
                {
                    OFFSET -0.000000 -0.054136 0.124930
                    CHANNELS 3 Zrotation Xrotation Yrotation
                    End Site
                    {
                        OFFSET -0.000000 0.000000 0.033315
                    }
                }
            }
        }
    }
}
MOTION
Frames:    14
Frame Time:    0.010000
0.374922    0.799253    -0.296699    -3.819219    -2.545102    -45.034817    -3.266957    -0.892496    1.471148    4.736098    18.221434    -0.260543    2.536117    -9.988656    -7.271244    -5.560964    -1.164880    -6.746045    -4.864275    8.997258    -0.505907    -57.778515    50.177311    -22.287302    5.516489    -2.976696    -25.489597    93.334511    -5.638442    1.892985    1.295912    4.544293    6.407673    52.064278    52.194828    27.489550    -3.191311    -7.440357    9.036985    -101.882568    -9.322492    -8.162570    -4.563249    12.164561    5.044456    -2.162319    12.781212    -0.708321    9.824615    -13.536335    50.392956    0.000000    0.000000    0.000000    4.932547    -10.290580    -2.963606    0.867665    10.568752    -6.417598    -5.160503    -13.477947    -37.591537    0.000000    0.000000    0.000000    
0.378945    0.799092    -0.298884    -3.804701    -2.469903    -45.327969    -3.381291    -0.963564    1.481918    4.574263    18.339455    -0.234647    2.595614    -10.038133    -7.143913    -5.512660    -1.098864    -6.615458    -4.862344    8.977515    -0.484192    -57.723000    49.991917    -22.168457    5.522984    -2.977125    -25.610447    93.766037    -5.563948    1.904649    1.332499    4.594201    6.470780    51.879513    52.320477    27.770624    -3.318752    -7.343413    9.006783    -101.744995    -9.372514    -8.050286    -4.594988    11.864495    5.583369    -2.189103    12.712369    -1.011239    9.567156    -13.942840    50.086140    0.000000    0.000000    0.000000    4.871677    -10.243436    -3.044656    0.923773    9.874639    -6.444069    -5.139289    -13.369497    -37.591831    0.000000    0.000000    0.000000    
0.382656    0.799284    -0.300881    -3.884691    -2.458523    -45.595337    -3.518327    -0.986549    1.512737    4.465178    18.472271    -0.211371    2.484603    -10.108328    -6.772639    -4.618750    -0.908016    -6.336377    -4.822116    8.909208    -0.556190    -57.743107    50.061432    -21.981581    5.665646    -3.334180    -25.661499    94.048836    -5.767806    2.247901    1.267779    4.346313    6.511558    51.950256    53.527290    28.083439    -4.204216    -7.792337    8.302648    -101.207245    -9.664197    -8.440295    -4.514892    11.931978    5.496873    -2.471826    12.239213    -0.863854    9.651956    -14.000732    50.059414    0.000000    0.000000    0.000000    4.873619    -9.997940    -3.210872    0.907138    9.089812    -6.493841    -5.061197    -13.196841    -37.614315    0.000000    0.000000    0.000000    
0.386212    0.799428    -0.302916    -4.062355    -2.466670    -45.867840    -3.572952    -0.936744    1.520695    4.350075    18.671078    -0.198080    2.498257    -10.149364    -6.626509    -4.539235    -0.875130    -6.193886    -4.831818    8.933859    -0.582252    -57.681049    49.775398    -21.881605    5.712083    -3.178356    -25.700790    94.847397    -5.860397    2.123481    1.216319    4.314927    6.510332    52.003952    53.041279    27.964403    -3.675387    -7.395499    8.906992    -101.372650    -9.518591    -8.061507    -4.423578    12.055486    5.574530    -2.664891    11.899451    -2.267210    10.036717    -13.614740    51.336830    0.000000    0.000000    0.000000    4.980802    -9.622265    -3.277779    0.845570    8.234790    -6.615079    -5.020410    -13.015229    -37.720943    0.000000    0.000000    0.000000    
0.390337    0.799341    -0.304773    -3.916858    -2.479457    -46.130100    -3.765156    -1.049189    1.519981    4.146228    18.759439    -0.166150    2.507464    -10.129569    -6.458981    -4.452628    -0.883469    -6.030545    -4.890009    9.006758    -0.500282    -57.405819    49.724495    -21.994671    5.816825    -3.386738    -25.702686    94.564301    -6.117456    2.303793    1.318180    4.612110    6.527137    51.455956    52.731510    28.363899    -3.397740    -7.155527    9.272859    -101.377983    -9.406352    -7.821232    -4.682616    11.858255    5.465534    -2.807150    11.561697    -2.040848    9.857432    -14.183992    50.919926    0.000000    0.000000    0.000000    4.750498    -9.632671    -3.517242    0.825198    7.610241    -6.553001    -4.922104    -13.162824    -37.492592    0.000000    0.000000    0.000000    
0.393643    0.799683    -0.306841    -4.100732    -2.468737    -46.409580    -3.824031    -1.018814    1.568462    4.072511    18.932205    -0.144181    2.549657    -10.135605    -6.341730    -4.422412    -0.844799    -5.909812    -4.916234    9.104442    -0.520265    -57.156223    49.569019    -22.076794    5.886096    -3.462431    -25.740007    94.610008    -6.279837    2.370732    1.307752    4.536216    6.534361    51.510895    52.749451    28.366486    -3.347650    -7.019052    9.361758    -101.244659    -9.395000    -7.673914    -4.617491    11.814115    5.898015    -2.923842    11.397029    -2.198565    10.027114    -13.550577    51.314678    0.000000    0.000000    0.000000    4.967155    -9.273491    -3.598251    0.611504    6.794816    -6.669584    -4.786796    -13.067999    -37.477070    0.000000    0.000000    0.000000    
0.397469    0.799596    -0.308773    -3.989285    -2.480596    -46.709179    -3.998507    -1.109332    1.620046    3.886242    18.989794    -0.096214    2.601299    -10.082367    -6.225310    -4.439267    -0.899576    -5.786018    -4.922641    9.037601    -0.545690    -56.901543    49.974785    -22.229420    6.168226    -3.684035    -25.313681    94.703568    -6.456124    2.564536    1.263375    4.544106    6.505579    51.538269    52.954891    28.503408    -3.548657    -6.904990    9.290389    -100.887642    -9.346491    -7.511387    -4.836002    11.626568    5.659133    -3.132538    11.013387    -0.657556    9.907196    -13.816324    50.360611    0.000000    0.000000    0.000000    4.813562    -9.264210    -3.683948    0.551935    6.244378    -6.569364    -4.750659    -13.281718    -37.315575    0.000000    0.000000    0.000000    
0.400496    0.800136    -0.310593    -4.195637    -2.515305    -47.006065    -4.030114    -1.058292    1.677636    3.789738    19.162052    -0.067085    2.582335    -10.072711    -6.077330    -4.385143    -0.920228    -5.640857    -4.956613    9.018587    -0.519819    -56.734226    49.986588    -22.215803    6.196738    -3.977764    -25.345226    94.481255    -6.404211    2.835864    1.327200    4.814065    6.456748    51.161728    52.751842    28.874771    -3.472177    -6.788422    9.481522    -100.979980    -9.319639    -7.400137    -4.896668    11.765342    5.812677    -3.145152    10.583743    -0.477940    10.072056    -13.275208    50.801788    0.000000    0.000000    0.000000    4.930022    -8.821052    -3.691352    0.469167    5.529491    -6.477924    -4.747286    -13.084056    -37.523376    0.000000    0.000000    0.000000    
0.403970    0.800176    -0.312546    -4.160764    -2.445783    -47.302059    -4.042496    -1.182244    1.671931    3.534545    19.230322    -0.026469    2.571805    -9.980633    -5.892727    -4.275094    -0.963377    -5.463118    -5.016477    9.066180    -0.414845    -56.519096    49.827385    -22.229309    6.175032    -3.887911    -25.298214    94.625565    -6.410955    2.761797    1.672227    5.533634    6.531867    50.071327    52.077057    29.581692    -3.169173    -6.524453    9.939498    -100.903137    -9.124092    -7.123241    -5.121335    11.749778    5.932883    -2.994810    10.125122    -2.311712    10.494614    -13.064864    52.161446    0.000000    0.000000    0.000000    4.935609    -8.876915    -3.569600    0.275279    5.202785    -6.281360    -4.799931    -13.432583    -37.297424    0.000000    0.000000    0.000000    
0.406952    0.800865    -0.314568    -4.366752    -2.450790    -47.630653    -4.064114    -1.084531    1.713349    3.471728    19.288633    -0.004878    2.564559    -9.858676    -5.768870    -4.375845    -1.045774    -5.323483    -5.127262    9.117286    -0.330929    -56.392963    49.490955    -22.176565    6.084777    -3.756505    -25.309973    94.605247    -6.694436    2.660174    1.717354    5.780510    6.655127    49.797287    51.924976    29.816711    -3.144835    -6.467656    10.012588    -100.846413    -9.133033    -7.062801    -4.969167    11.566655    5.790983    -3.266684    10.138277    -0.072573    10.208793    -13.157729    50.800476    0.000000    0.000000    0.000000    5.107405    -8.631928    -3.374706    0.208350    4.876231    -6.364069    -4.677504    -13.061507    -37.444916    0.000000    0.000000    0.000000    
0.410106    0.801335    -0.316569    -4.434219    -2.404862    -47.956612    -4.056841    -1.048975    1.798613    3.311286    19.254642    0.051417    2.567967    -9.808238    -5.638285    -4.415420    -1.123945    -5.185354    -5.148252    9.021544    -0.308846    -56.833553    48.598549    -21.432083    5.702841    -3.159068    -25.754070    94.722809    -6.326032    2.116381    1.249325    4.568610    6.686570    51.936138    52.276894    28.052368    -2.867002    -6.064851    10.085906    -101.070343    -9.205157    -6.707269    -5.045565    11.338649    6.042809    -3.200502    10.084852    -0.070385    10.112629    -13.201114    50.758167    0.000000    0.000000    0.000000    5.194385    -8.720499    -3.161050    0.024727    4.900512    -6.139598    -4.535363    -13.349792    -37.090904    0.000000    0.000000    0.000000    
0.412997    0.801940    -0.318519    -4.554896    -2.350234    -48.330166    -4.067191    -0.898867    2.058689    3.289180    19.035980    0.146703    2.436479    -9.783582    -5.510345    -4.192973    -1.042055    -5.081931    -5.155186    9.219915    -0.320647    -56.208328    49.432995    -22.171251    6.084316    -3.551023    -24.995911    94.682846    -6.485311    2.468005    1.693621    5.686770    6.494925    50.327560    52.005474    29.255753    -3.072815    -6.089043    10.227564    -100.801544    -8.964336    -6.664842    -4.954185    11.373934    5.668393    -3.436246    9.731270    0.306000    10.078418    -13.361596    50.627895    0.000000    0.000000    0.000000    5.228687    -8.777878    -2.771695    0.086746    5.103679    -5.898664    -4.516184    -13.339400    -37.059315    0.000000    0.000000    0.000000    
0.415837    0.802726    -0.320445    -4.714740    -2.386773    -48.609921    -4.033051    -0.860062    1.991641    3.090872    19.185492    0.152975    2.404735    -9.721413    -5.336529    -4.219906    -1.126824    -4.902130    -5.236350    9.106028    -0.211896    -56.600979    48.441814    -21.479750    5.635263    -3.068234    -25.400276    94.498497    -6.332603    2.047061    1.785766    5.891379    6.765807    50.081863    51.701935    29.390324    -2.934805    -5.921271    10.327739    -100.902275    -8.983743    -6.516545    -4.950393    11.446664    5.564479    -3.443727    9.424282    0.610820    8.793806    -16.215218    48.392399    0.000000    0.000000    0.000000    5.163794    -8.788176    -2.409731    0.217440    5.467656    -5.555552    -4.543061    -13.425234    -37.113106    0.000000    0.000000    0.000000    
0.418434    0.803405    -0.322212    -4.961840    -2.450830    -48.828388    -3.978534    -0.653449    1.985716    2.953175    19.182819    0.171850    2.424409    -9.723875    -5.224548    -4.399379    -0.943478    -4.757147    -5.152128    8.937379    -0.154665    -56.504467    49.236012    -21.755745    5.923293    -3.339059    -24.510578    94.601097    -6.552597    2.315959    1.773155    5.845947    6.849565    50.180065    52.087967    29.385254    -3.250216    -6.096090    10.087196    -100.580910    -8.979893    -6.644076    -4.932876    11.658567    5.468228    -3.473983    9.007311    2.132017    8.432724    -16.397326    47.157585    0.000000    0.000000    0.000000    5.098154    -8.791767    -2.093991    0.381680    6.121340    -5.383519    -4.570312    -13.483774    -36.904797    0.000000    0.000000    0.000000    
